<svg version="1.1" xmlns="http://www.w3.org/2000/svg" xmlns:xlink="http://www.w3.org/1999/xlink" width="525.7077" height="464.79976" viewBox="0,0,525.7077,464.79976"><g transform="translate(25.02304,64.96468)"><g data-paper-data="{&quot;isPaintingLayer&quot;:true}" fill-rule="nonzero" stroke="none" stroke-linecap="butt" stroke-linejoin="miter" stroke-miterlimit="10" stroke-dasharray="" stroke-dashoffset="0" style="mix-blend-mode: normal"><path d="M21.5,379.3c-4.81771,-1.30208 -10.1201,-1.43024 -14.45312,-3.90625c-6.93796,-3.96455 -10.41858,-13.57044 -10.54687,-21.09375c-0.0788,-4.62054 -0.72767,-16.04846 0.34015,-23.10997c1.38891,-9.18486 3.19107,-16.91226 3.65985,-26.35556c0.84728,-17.06792 -0.61045,-21.2832 -3.95806,-35.11505c-0.93405,-3.85938 -2.74963,-7.38954 -3.62371,-11.34304c-5.84868,-26.454 -0.89237,-55.45334 1.15806,-82.54958c0.24861,-3.28532 -1.49008,-7.09615 -1.57629,-10.5268c-0.41206,-16.39773 -4.46241,-32.17836 -5.75883,-48.27162c-1.23254,-1.53569 -0.51158,-4.01763 -0.34782,-6.15606c-0.03215,-1.05634 -0.04912,-2.11451 -0.04912,-3.17478c0,-9.47913 5.24261,-20.12058 8.39754,-28.90933c1.12039,-3.12109 3.45218,-6.43053 3.58625,-9.76916c0.03312,-0.82477 -1.61864,-0.422 -2.32803,-0.84404c-1.51829,-0.90329 -2.96254,-1.94424 -4.2996,-3.09898c-4.73818,-4.09207 -8.14106,-11.47305 -8.80977,-17.86977c-0.52047,-4.9787 -0.54026,-10.34962 0.09819,-15.64401c-1.22467,-1.28432 -2.36271,-2.64106 -3.36631,-4.10351c-1.24992,-1.82137 -1.29825,-4.22378 -2.01617,-6.31287c-2.39268,-6.96255 -3.93107,-13.08346 -1.10784,-20.34071c1.1269,-2.89676 1.87233,-6.24269 4.16267,-8.34399c4.17608,-3.83139 13.94277,-6.18605 19.84111,-4.49976c1.43819,0.41117 2.9775,0.75255 4.44449,1.22305c1.42292,-1.33568 3.15869,-2.34198 5.08558,-2.89721c5.17115,-10.94402 10.04024,-21.97969 17.04941,-31.98398c2.21574,-3.16256 3.43363,-7.45802 6.61864,-9.77929c7.68714,-5.6025 16.69419,-10.33952 26.49523,-9.35941c8.60404,0.8604 11.11084,5.47895 17.43867,7.55333c4.75905,1.5601 9.4894,3.47787 12.76672,7.27267c1.66627,1.92936 3.38145,3.81878 4.97398,5.80944c1.69659,2.12074 1.73364,5.15003 2.47038,7.76406c0.50065,1.77632 0.8831,7.01924 1.39861,7.05133c2.78071,0.17307 5.70177,-2.16816 8.52257,-2.45024c5.37541,-0.53754 11.18789,-0.04446 16.63969,0.52548c4.84135,0.50612 8.9204,3.16969 13.58,4.21153c4.09945,0.9166 8.28085,0.91685 12.41665,1.88333c6.69266,1.56398 13.32389,4.20169 19.87273,6.29894c2.29441,0.73478 4.81581,0.16035 7.22437,0.21557c6.12362,0.14039 12.10439,1.87199 18.24689,2c16.43674,0.34253 34.12243,0.08827 50.67547,-2c6.41857,-0.80974 12.54827,-2.74253 19.07764,-3c9.8067,-0.3867 19.69892,2.18175 29.38932,3.09733c7.93284,0.74952 18.91557,1.19712 27.13519,0.90267c2.4693,-0.08846 4.95875,-0.97361 7.47549,-1c6.97374,-0.07313 13.96792,0.52352 20.92236,0c5.10587,-0.38436 9.88751,-2.90818 15.07764,-3c5.47079,-0.09678 10.44858,0.89543 15.65277,1c8.79048,0.17663 17.58453,0.0152 26.37677,0c2.7257,-0.00471 5.7781,-1.1606 8.57292,-1.15576c5.0127,0.00867 9.62025,2.99874 13.50469,3.15576c3.76475,0.15219 8.23465,0.99177 11.86331,1c18.31384,0.04155 35.37375,-1.27109 47.99268,14.02458c3.75374,4.54998 5.10608,12.38598 5.03686,17.98629c-0.07083,5.73069 0.51518,12.22084 -0.74644,18.05252c-0.74369,3.43763 -1.84686,6.64152 -3.25356,9.83831c-0.51388,1.16782 -0.62022,5.6341 -0.9619,6.96633c-3.68107,14.35278 -5.79999,19.07562 -6.0381,36.13197c-0.06285,4.50189 -2.54932,14.8382 -1.24474,17.44737c0.26218,0.52437 1.21894,0.12075 1.69786,0.45888c2.61355,1.84522 5.73195,6.16044 7.42188,8.59375c3.17765,4.57547 6.29161,18.83016 6.28076,25.10246c-0.00686,3.96358 -2.65803,8.5955 -2.22889,12.31045c2.91826,25.26225 4.46148,33.28396 5.01378,56.4936c0.29349,12.33373 -0.23362,25.31868 -2.42613,37.49639c-1.15603,6.42085 -3.87862,12.09527 -4.74266,18.53503c-1.76781,13.17559 -1.33178,21.60443 -0.77186,37.48443c0.02873,0.8148 1.35027,5.40087 1.60937,7.17139c0.66751,4.56134 0.27147,9.12007 0.39063,13.74724c0.08389,3.25793 3.65685,8.56872 4.13485,12.42557c2.09573,16.90979 5.87966,34.25145 -8.68173,46.82719c-2.80463,2.42218 -6.95173,2.61684 -10.54687,3.51563c-12.73728,3.18432 -24.00828,-7.44116 -36.79911,-6.60937c-3.41913,0.22234 -6.71801,2.34015 -9.60714,3.875c-3.68006,1.95503 -8.28092,1.88736 -11.96896,3.10955c-3.0993,1.02709 -6.28916,2.66583 -9.62479,3.62482c-2.42237,0.69643 -4.36113,0.04039 -6.84931,0.39063c-3.97059,0.55891 -7.90758,2.09091 -11.94697,2.65985c-12.40795,1.74764 -28.92574,2.39897 -40.64551,1.08889c-9.19902,-1.02831 -18.37546,-4.19457 -26.33197,-8.94748c-5.06524,-3.02578 -15.3219,-9.45798 -20.65167,-10.60999c-9.25035,-1.99944 -18.75184,-1.67869 -28.10635,-0.39494c-10.19582,1.3992 -19.88777,4.54636 -29.76272,7.26039c-1.24103,0.34109 -2.0276,1.28132 -3.11175,1.81829c-4.8164,2.38549 -10.1887,3.08085 -15.42236,3.125c-3.2022,0.02702 -6.67472,1.93322 -10.07764,2c-12.07283,0.23691 -23.16239,-0.78749 -34.90625,-2.39062c-2.80453,-0.38284 -5.89394,-2.59175 -8.56924,-2.60937c-3.14889,-0.02075 -6.29792,-0.00684 -9.44687,0c-1.7424,0.00378 -4.19744,1.31818 -5.96767,1.65985c-4.78633,0.92381 -10.12225,1.23775 -14.84725,2.55643c-2.87279,0.80176 -4.44845,4.1557 -6.85954,5.1444c-2.71076,1.11158 -5.65727,1.52751 -8.49694,2.2487c-4.26293,1.08265 -9.48694,0.68281 -13.80915,-0.09486c-3.53877,-0.63671 -7.40344,-3.88457 -10.56562,-2.17315c-1.90252,1.02967 -2.88735,3.24509 -4.55605,4.62177c-3.64876,3.01023 -17.08861,6.45246 -21.46928,5.36732c-6.83097,-1.69211 -13.03152,-5.52426 -17.59989,-10.87733c-0.0669,-0.07839 -1.1772,-4.37163 -1.96013,-4.5153c-9.73653,-1.78676 -17.32331,-2.51605 -25.46212,-8.31188z" fill="#00c3c3" stroke-width="0.5"/><text transform="translate(118.5,106.78058) scale(2.59406,2.59406)" font-size="40" xml:space="preserve" fill="#000000" fill-rule="nonzero" stroke="none" stroke-width="1" stroke-linecap="butt" stroke-linejoin="miter" stroke-miterlimit="10" stroke-dasharray="" stroke-dashoffset="0" font-family="Handwriting" font-weight="normal" text-anchor="start" style="mix-blend-mode: normal"><tspan x="0" dy="0">Paint</tspan></text><text transform="translate(186.5,184.30549) scale(1.71359,1.71359)" font-size="40" xml:space="preserve" fill="#000000" fill-rule="nonzero" stroke="none" stroke-width="1" stroke-linecap="butt" stroke-linejoin="miter" stroke-miterlimit="10" stroke-dasharray="" stroke-dashoffset="0" font-family="Handwriting" font-weight="normal" text-anchor="start" style="mix-blend-mode: normal"><tspan x="0" dy="0">By</tspan></text><text transform="translate(124.5,277.23664) scale(2.23165,2.23165)" font-size="40" xml:space="preserve" fill="#000000" fill-rule="nonzero" stroke="none" stroke-width="1" stroke-linecap="butt" stroke-linejoin="miter" stroke-miterlimit="10" stroke-dasharray="" stroke-dashoffset="0" font-family="Handwriting" font-weight="normal" text-anchor="start" style="mix-blend-mode: normal"><tspan x="0" dy="0">Magic</tspan></text></g></g></svg>