<svg version="1.1" xmlns="http://www.w3.org/2000/svg" xmlns:xlink="http://www.w3.org/1999/xlink" width="161.04399" height="187" viewBox="0,0,161.04399,187"><g transform="translate(-155,-81.5)"><g data-paper-data="{&quot;isPaintingLayer&quot;:true}" fill-rule="nonzero" stroke="none" stroke-width="0.5" stroke-linecap="butt" stroke-linejoin="miter" stroke-miterlimit="10" stroke-dasharray="" stroke-dashoffset="0" style="mix-blend-mode: normal"><path d="M273.97277,132.45489c-0.08089,0.00358 -0.16164,0.00569 -0.24228,0.0064c-0.17893,0.37325 -0.36547,0.739 -0.20238,1.07693c0.19882,0.41199 0.9149,-0.00532 1.37235,-0.00594c1,-0.00136 2.01361,-0.1644 3,0c0.17681,0.02947 0.34414,0.06304 0.5033,0.0998c0.23528,-0.40625 0.47258,-0.809 0.70396,-1.1972c-0.33202,-0.10788 -0.64119,-0.21202 -0.92205,-0.30826l-0.30118,-0.51112l-0.15226,0.15226l-0.45715,-0.45715c-1.41012,0.63326 -2.66475,1.11605 -3.30232,1.14427zM286.45998,121.71313c0.615,-1.00344 1.24956,-2.03293 1.95989,-3.09988c0.57119,-0.85796 1.18424,-1.72685 1.79775,-2.60991c-2.50148,2.32056 -5.11875,4.53254 -7.9264,6.0457c-0.59672,0.6431 -1.17886,1.27753 -1.77284,1.90701c2.01047,-0.74986 3.99653,-1.4109 5.61381,-2.09981c0.10975,-0.04675 0.21901,-0.09446 0.3278,-0.1431zM284.56395,110.62397c-2.25422,0.92813 -4.54064,1.82938 -6.47897,3.30938c-1.91856,1.4649 -3.23293,5.05368 -4.33918,7.16502c-0.04461,0.08514 -0.08721,0.17014 -0.12787,0.255l3.16245,-3.79494c1.11531,-2.06413 4.63082,-4.53962 6.10839,-5.67013c0.55532,-0.42488 1.11393,-0.8461 1.67518,-1.26433zM272.88736,124.243c0.09215,-0.05629 0.18429,-0.11257 0.27644,-0.16886c0.01902,-0.01518 0.038,-0.03037 0.05693,-0.04555c-0.11399,-0.25219 -0.18735,-0.52667 -0.21174,-0.8151c-0.06417,0.3446 -0.10317,0.68762 -0.12162,1.02951zM276.06153,138.37208c-1.83371,-0.04345 -3.29527,0.51465 -4.92526,-0.43302c-0.22321,0.16951 -0.50107,0.31777 -0.84569,0.43265c-2.37171,0.79057 -3.16228,-1.58114 -3.16228,-1.58114c-1.82668,-5.48005 -3.28796,-9.95361 -3.12829,-15.79057c0.03611,-1.31993 -0.30401,-2.7323 0.1903,-3.95671c0.89565,-2.21854 4.81251,-5.08164 6.54193,-6.81106c1.92387,-1.92387 4.15091,-4.9407 6.45344,-6.35886c0.89751,-0.55279 2.09352,-0.46203 3,-1c0.71692,-0.42547 1.07911,-1.28502 1.72936,-1.80673c3.77815,-3.03129 8.2356,-5.88662 12.7944,-7.43835c2.9991,-0.9997 5.9895,-2.03525 9,-3c1.44734,-0.46382 2.88113,-0.43955 3.66394,-1.94262c0.44961,-0.86329 0.58723,-1.85603 0.88084,-2.78405l0.24567,-0.23504l-0.08001,-0.05334l1.97849,-2.96774c0.44514,-0.68925 1.2201,-1.14551 2.10163,-1.14551c1.1246,0 2.07576,0.74256 2.38994,1.76412l0.98177,2.94531l-0.10818,0.03606c0.09441,0.24527 0.17436,0.49633 0.23647,0.75451c0.27707,1.1517 -0.83754,2.23201 -1.03228,3.40046c-0.14247,0.85479 0.02729,1.73298 0.03228,2.59954c0.04208,7.29911 0.20442,13.78575 -2.12829,20.79057c-0.21383,0.64211 -2.04351,6.18944 -2.24508,6.52376c-0.24221,0.4017 -0.55283,0.75018 -0.89742,1.07216c-0.27801,2.07689 -0.8535,4.08347 -2.10258,5.92784c-0.81519,1.20369 -1.81644,2.4648 -3.16992,2.99537c-0.41814,0.16391 -0.85287,0.2499 -1.29746,0.289c-0.18794,0.80054 -0.31917,1.62664 -0.89148,2.16907c-1.03752,0.98334 -2.63795,1.10412 -3.9772,1.60394c-2.89915,1.08198 -5.89592,1.96555 -8.83386,2.93799c-1.16912,0.56649 -2.40714,1.09199 -3.678,1.49074c-0.61483,1.32185 -1.25645,2.61989 -2.25061,3.66134c-4.31607,4.52137 -7.15173,4.27268 -7.51318,-3.73457c-0.00424,-0.09384 0.01215,-0.2134 0.0466,-0.35512zM300.09257,125.90271c0.46178,-0.37827 0.97898,-0.714 1.28081,-1.21704c0.54233,-0.90388 0.44721,-2.10249 1,-3c0.57801,-0.93845 1.51727,-1.59296 2.39068,-2.29836c0.19925,-1.42443 0.24795,-2.85283 0.29244,-4.28307c-0.62553,0.53391 -1.2892,1.03421 -1.96952,1.51303c-0.48111,1.22093 -0.69634,2.57018 -1.40883,3.66882l-1.83533,4.58831c-0.14765,0.39543 -0.39254,0.74345 -0.70559,1.01495c0.32396,0.00988 0.64331,0.01486 0.95534,0.01335zM308.48372,101.63482c0.47404,0.1874 0.79738,0.53716 0.99384,1.02164c0.31485,0.11321 0.56459,0.27982 0.76268,0.47291c0.0583,-1.51396 0.01107,-3.06693 -0.0565,-4.61573c-0.51729,0.99932 -1.1772,1.94477 -1.63461,2.97234c-0.02204,0.04951 -0.04384,0.09913 -0.06541,0.14884zM288.42188,102.45316c-1.16644,0.79959 -2.28565,1.64156 -3.33691,2.4802c-0.06752,0.05386 -0.13319,0.10999 -0.19736,0.16794c1.11299,-0.51454 2.11713,-1.11116 2.84462,-1.86906c0.23927,-0.24927 0.4681,-0.51002 0.68965,-0.77908zM269.58212,118.2247c-0.32859,0.19267 -0.64027,0.39509 -0.77242,0.73201c-0.12442,0.31722 -0.08407,0.6558 -0.00903,1.00024c0.1329,-0.35029 0.28357,-0.70198 0.45355,-1.05533c0.10968,-0.228 0.21887,-0.45364 0.32791,-0.67692zM293.77335,130.53143c-0.69877,-0.00449 -1.39754,-0.01038 -2.0961,-0.01584c-0.18775,0.29444 -0.35548,0.60858 -0.52557,0.91839c0.87189,-0.30706 1.74557,-0.61179 2.62168,-0.90256zM298.98378,110.2906c0.38927,-0.97679 0.798,-2.2234 1.2899,-3.42103c-0.27299,0.23582 -0.54339,0.46906 -0.80544,0.69485c-0.44357,0.79355 -0.33445,1.80385 -0.48446,2.72618zM296.36034,100.87308c-1.01112,0.80413 -1.74563,1.77714 -2.52469,2.82608c0.85701,-0.91659 1.69968,-1.85576 2.52469,-2.82608z" fill="#884c00"/><path d="M256.24513,146.65925c1.0064,-0.66304 1.94889,-1.45108 3.08149,-1.83744c0.30764,-0.10494 0.69043,-0.19252 1.06173,-0.21031c0.99745,-2.97108 3.80459,-5.1115 7.11166,-5.1115c4.14214,0 7.5,3.35786 7.5,7.5v3h-0.59431l-0.05554,0.16662l0.553,1.03475c-0.52458,1.69846 -1.00043,3.29272 -1.5403,4.82406c0.02204,0.03466 0.04412,0.06947 0.06624,0.10445c1.05065,1.66164 0.3806,3.91342 0.5709,5.87013c0,1.75906 0.08278,7.8121 -0.32181,9.17338c-0.45491,1.53058 -1.73341,2.69026 -2.44083,4.12175c-0.93399,1.89 -1.06098,4.11249 -2,6c-1.67457,3.36602 -4.5701,7.52709 -6.9373,10.45978c-0.38766,0.48027 -1.10947,0.65478 -1.42018,1.18807c-1.29134,2.21634 -2.00801,4.78483 -3.57982,6.81193c-2.95821,3.81512 -7.18666,7.80604 -10.88605,10.91099c-0.0074,0.00621 -4.18161,2.86474 -5.11395,4.08901c-1.48322,1.94766 -3.28761,3.64201 -4.71575,5.63041c-1.01078,1.40731 -1.28855,3.30309 -2.46173,4.57819c-1.42431,1.54805 -3.42065,2.44943 -5.13097,3.67415c-2.70573,1.10058 -5.54232,1.87998 -8.19648,3.0997c-2.45478,1.1281 -4.66608,4.49832 -6.54022,6.0627c-4.75235,3.96687 -10.16349,7.1626 -15,11c-0.99647,0.79063 -1.72576,1.91778 -2.81193,2.57982c-1.10785,0.67524 -2.48493,0.78223 -3.64785,1.35748c-3.27755,1.62128 -5.86761,4.65545 -9.26098,6.12149c-1.65369,0.71444 -3.45849,1.01804 -5.21513,1.41721c-0.69511,0.15795 -1.51822,-0.12565 -2.12378,0.25043c-2.18937,1.3597 -3.3802,4.5907 -5.93079,4.96033c-0.16264,0.02357 -0.3254,0.04538 -0.48828,0.06551l0.07793,0.15587l-3.86505,1.93252c-1.04223,0.54872 -2.22937,0.85927 -3.48905,0.85927c-4.14214,0 -7.5,-3.35786 -7.5,-7.5c0,-2.07107 0.83947,-3.94607 2.1967,-5.3033l2,-2c3.38244,-3.31393 7.07017,-6.13644 10.50323,-9.45162c0.84606,-1.30478 3.29868,-5.1243 4,-6c0.42982,-0.53669 1.20692,-0.77155 1.53876,-1.37377c0.78205,-1.41925 0.91869,-3.13904 1.72307,-4.54576c1.07803,-1.88528 2.49801,-3.558 3.87233,-5.23958c1.20337,-1.47241 3.42821,-2.99503 5.17439,-4.56554c-0.0429,-1.63427 0.37639,-2.89215 0.37639,-2.89215l1.37776,-3.92343c0.9791,-1.48659 1.84994,-3.05043 2.9373,-4.45978c0.37702,-0.48866 1.11137,-0.65368 1.42018,-1.18807c0.52741,-0.91266 0.4312,-2.11255 1,-3c2.09688,-3.27158 5.45857,-5.64069 8.30053,-8.35565c1.91993,-2.88208 3.96666,-5.59941 6.27928,-8.45629c0.90154,-1.11371 1.46364,-2.49981 2.46849,-3.51989c1.16483,-1.85529 2.32544,-3.70352 3.53151,-5.48011c1.49205,-1.52289 2.98922,-3.04083 4.49677,-4.54838c0.92839,-0.92839 2.30998,-1.47886 2.92342,-2.63968c0.4925,-0.93196 0.44719,-2.1025 1,-3c2.69319,-4.37247 6.67112,-7.74145 10.62496,-10.85708c0.9991,-0.7873 1.72576,-1.91778 2.81193,-2.57982c1.10785,-0.67524 2.48873,-0.77461 3.64785,-1.35748c2.24259,-1.12771 4.34837,-2.50913 6.53068,-3.74946c1.3347,-0.75859 2.62138,-1.51573 3.90608,-2.2561c1.71495,-1.46533 3.5739,-2.709 5.68499,-3.43526c0.19417,-0.0668 0.51367,-0.12009 0.91851,-0.16256z" fill="#000000"/></g></g></svg>