<svg version="1.1" xmlns="http://www.w3.org/2000/svg" xmlns:xlink="http://www.w3.org/1999/xlink" width="382.58029" height="224.31326" viewBox="0,0,382.58029,224.31326"><g transform="translate(-42.10001,-47.63063)"><g data-paper-data="{&quot;isPaintingLayer&quot;:true}" fill="#a5a5a5" fill-rule="nonzero" stroke="none" stroke-width="0.5" stroke-linecap="butt" stroke-linejoin="miter" stroke-miterlimit="10" stroke-dasharray="" stroke-dashoffset="0" style="mix-blend-mode: normal"><path d="M404.22856,151.72416c3.24151,1.13001 6.64345,4.56716 9.56229,6.34396c0.5452,0.33189 1.38069,0.19098 1.78961,0.68106c2.42492,2.90621 4.3687,6.18229 6.52988,9.28964c2.21435,3.18381 2.02512,7.51028 2.53659,11.35454c0.36349,2.73203 -2.31864,14.8834 -4.33514,18.75909c-10.68004,20.52692 -16.52377,29.26013 -30.46844,48.27855c-2.26704,3.0919 -6.83178,7.03731 -9.80838,8.35531c-10.09953,4.47195 -15.11413,3.18808 -25.0659,-2.54289c-2.02183,-1.16432 -2.12368,-5.71763 -4.43688,-5.41341c-2.54218,3.13661 -5.82845,5.64555 -9.59016,7.25817c-2.84936,2.13254 -8.47464,2.72242 -12.01314,2.48977c-2.00796,-0.13202 -3.83575,-0.74781 -5.54014,-1.68984c-7.2656,-2.35357 -13.07436,-7.9433 -15.7263,-15.06921c-0.30892,-0.2624 -0.54102,-0.50721 -0.71473,-0.74586c-6.30723,4.94931 -8.32235,9.08008 -17.89634,10.21748c-2.4716,0.29363 -5.20009,1.61555 -7.44703,0.5449c-2.26355,-1.07856 -4.3086,-2.56982 -6.52249,-3.74696c-0.55905,-0.29725 -5.35094,-2.08409 -6.45955,-3.71081c-2.46074,-3.61075 -4.84704,-7.2793 -7.02361,-11.06814c-0.81755,-1.42315 -1.05103,-3.33305 -0.91342,-5.43454c-3.7051,3.55976 -7.40543,7.29529 -11.19336,11.69598c-0.51388,0.59701 -0.01779,1.63473 -0.38512,2.33156c-1.4018,2.65924 -3.07775,5.1751 -4.85139,7.6022c-1.61194,2.20582 -4.78526,4.32262 -6.67961,6.07483c-8.88396,8.21738 -13.1317,13.06804 -27.17141,12.25588c-3.06982,-0.17758 -5.38321,-2.97853 -7.99892,-4.59513c-2.61571,-1.61659 -6.13789,-2.44333 -7.68725,-5.09942c-1.48832,-2.55145 -0.65568,-7.03827 -3.37402,-8.19396c-0.19556,-0.08314 -5.85586,4.71912 -7.79424,5.95303c-4.21587,2.68369 -8.48468,5.28338 -12.7138,7.94613c-5.14469,3.23921 -16.15487,11.01928 -23.05126,10.00782c-5.20148,-0.76288 -7.92522,-1.79039 -12.04763,-4.70814c-2.74974,-1.94621 -5.91018,-4.62532 -8.1288,-7.42384c-2.95975,-3.73337 -2.82321,-6.55282 -3.54893,-11.36129c-2.0273,-13.43245 9.59667,-22.34102 16.39009,-32.9582c1.94219,-3.03538 -2.98721,1.69941 -3.50693,1.7607c-3.75896,0.44332 -7.56273,0.35207 -11.347,0.42707c-4.12791,0.08181 -7.85623,-2.63709 -11.53654,-4.50834c-2.64028,-1.34245 -11.196,-11.20137 -11.98522,-14.30896c-0.66158,-2.60501 -1.23877,-5.23292 -1.72973,-7.8754c-0.20134,-1.08364 -0.46017,-2.19247 -0.34448,-3.28857c0.08458,-0.80143 1.75525,-2.37647 0.96541,-2.21652c-14.10389,2.85624 -22.66927,12.71442 -37.46178,2.56184c-2.16819,-1.4881 -2.99356,-4.32571 -4.56433,-6.43478c-1.57077,-2.10907 -4.05306,-3.71265 -4.85776,-6.21624c-1.27046,-3.95271 -0.66739,-8.30687 -0.39036,-12.44948c0.04518,-0.67566 -0.40354,-1.38404 -0.18062,-2.02347c1.0319,-2.95995 3.56391,-7.35625 5.4981,-9.93517c0.64014,-0.85352 3.25538,-0.72486 2.21291,-2.69017c-2.05098,-0.4943 -4.0034,-1.24146 -5.82244,-2.20665c-7.91087,-4.19754 -13.29888,-12.51869 -13.29888,-22.09827c0,-9.88624 5.73849,-18.43218 14.06626,-22.48861c9.33495,-5.556 19.63522,-9.36391 28.99895,-14.87127c7.11125,-4.18254 15.50842,-11.46491 22.58631,-16.77393c4.42273,-3.31743 10.29576,-5.82401 14.6223,-8.5414c10.00445,-6.28354 16.09857,-11.60237 28.00918,-13.1148c1.37144,-0.17415 3.66137,-0.71467 4.99877,-0.36282c3.74919,0.98634 8.41596,0.94374 10.97137,3.85907c2.49494,2.84633 5.16829,5.55275 7.42188,8.59375c3.88802,5.24652 2.10499,13.1625 2.90899,18.95714c0.02936,0.21161 0.39178,-0.1739 0.57326,-0.28663c6.07466,-3.77346 12.11085,-7.60873 18.19277,-11.37048c9.10409,-5.63099 29.51951,-12.52164 40.87116,-9.45363c5.27269,1.42505 8.64395,3.75845 11.62681,7.78551c6.95392,9.38825 6.83195,14.55924 5.59423,25.35674c-0.01683,0.14679 0.2598,-0.14093 0.38749,-0.21527c3.12603,-1.82006 6.22162,-3.69313 9.37359,-5.46788c1.14016,-0.64198 2.3216,-1.2172 3.53551,-1.70559c11.36644,-4.57303 23.58778,-11.49402 36.27279,-11.66769c9.72798,-0.13319 12.71284,5.67658 16.93667,12.08225c1.56257,2.36973 4.46529,4.29081 4.66807,7.12209c0.30518,4.26103 -1.03487,8.61267 -0.25727,12.81324c0.16256,0.87816 1.71272,0.51292 2.54645,0.83305c2.36357,0.90755 4.77234,2.02187 6.7988,3.49875c4.13752,3.01543 6.78143,7.27348 9.39121,11.66005c0.4261,0.71619 0.69887,1.65016 0.85529,2.71137c2.18528,-0.10804 4.33102,0.01396 5.85873,0.57964c3.55771,1.31733 6.85199,3.17324 10.29394,4.76873c1.95626,0.90681 3.0657,4.42183 4.38827,6.12479c0.22877,0.29457 4.18518,-0.30988 5.70821,-0.22616c4.50583,0.24768 11.09668,1.0075 14.45313,3.90625c4.41861,3.81607 7.15482,7.98629 8.736,12.67298c3.81809,-0.24155 8.05315,0.10845 10.73945,1.04491z"/></g></g></svg>